<svg baseProfile="full" height="800px" version="1.1" viewBox="0 0 1000 1000" width="800px" xmlns="http://www.w3.org/2000/svg" xmlns:ev="http://www.w3.org/2001/xml-events" xmlns:xlink="http://www.w3.org/1999/xlink"><defs /><path d="M 500.0000,77.7778 A 422.2222,422.2222 0 0 1 590.7653,87.6491" fill="none" stroke="#4C6B85" stroke-linecap="butt" stroke-opacity="0.05" stroke-width="33.33333333333333" /><path d="M 590.7653,87.6491 A 422.2222,422.2222 0 0 1 677.2865,116.8015" fill="none" stroke="#4C6B85" stroke-linecap="butt" stroke-opacity="1.0" stroke-width="33.33333333333333" /><path d="M 677.2865,116.8015 A 422.2222,422.2222 0 0 1 755.5180,163.8718" fill="none" stroke="#4C6B85" stroke-linecap="butt" stroke-opacity="0.05" stroke-width="33.33333333333333" /><path d="M 755.5180,163.8718 A 422.2222,422.2222 0 0 1 821.8018,226.6591" fill="none" stroke="#4C6B85" stroke-linecap="butt" stroke-opacity="0.05" stroke-width="33.33333333333333" /><path d="M 821.8018,226.6591 A 422.2222,422.2222 0 0 1 873.0384,302.2275" fill="none" stroke="#4C6B85" stroke-linecap="butt" stroke-opacity="0.05" stroke-width="33.33333333333333" /><path d="M 873.0384,302.2275 A 422.2222,422.2222 0 0 1 906.8322,387.0436" fill="none" stroke="#4C6B85" stroke-linecap="butt" stroke-opacity="0.05" stroke-width="33.33333333333333" /><path d="M 906.8322,387.0436 A 422.2222,422.2222 0 0 1 921.6030,477.1413" fill="none" stroke="#4C6B85" stroke-linecap="butt" stroke-opacity="0.05" stroke-width="33.33333333333333" /><path d="M 921.6030,477.1413 A 422.2222,422.2222 0 0 1 916.6601,568.3080" fill="none" stroke="#4C6B85" stroke-linecap="butt" stroke-opacity="0.05" stroke-width="33.33333333333333" /><path d="M 916.6601,568.3080 A 422.2222,422.2222 0 0 1 892.2346,656.2806" fill="none" stroke="#4C6B85" stroke-linecap="butt" stroke-opacity="0.05" stroke-width="33.33333333333333" /><path d="M 892.2346,656.2806 A 422.2222,422.2222 0 0 1 849.4687,736.9456" fill="none" stroke="#4C6B85" stroke-linecap="butt" stroke-opacity="0.05" stroke-width="33.33333333333333" /><path d="M 849.4687,736.9456 A 422.2222,422.2222 0 0 1 790.3620,806.5314" fill="none" stroke="#4C6B85" stroke-linecap="butt" stroke-opacity="1.0" stroke-width="33.33333333333333" /><path d="M 790.3620,806.5314 A 422.2222,422.2222 0 0 1 717.6783,861.7841" fill="none" stroke="#4C6B85" stroke-linecap="butt" stroke-opacity="1.0" stroke-width="33.33333333333333" /><path d="M 717.6783,861.7841 A 422.2222,422.2222 0 0 1 634.8162,900.1202" fill="none" stroke="#4C6B85" stroke-linecap="butt" stroke-opacity="1.0" stroke-width="33.33333333333333" /><path d="M 634.8162,900.1202 A 422.2222,422.2222 0 0 1 545.6503,919.7471" fill="none" stroke="#4C6B85" stroke-linecap="butt" stroke-opacity="1.0" stroke-width="33.33333333333333" /><path d="M 545.6503,919.7471 A 422.2222,422.2222 0 0 1 454.3497,919.7471" fill="none" stroke="#4C6B85" stroke-linecap="butt" stroke-opacity="0.05" stroke-width="33.33333333333333" /><path d="M 454.3497,919.7471 A 422.2222,422.2222 0 0 1 365.1838,900.1202" fill="none" stroke="#4C6B85" stroke-linecap="butt" stroke-opacity="0.05" stroke-width="33.33333333333333" /><path d="M 365.1838,900.1202 A 422.2222,422.2222 0 0 1 282.3217,861.7841" fill="none" stroke="#4C6B85" stroke-linecap="butt" stroke-opacity="1.0" stroke-width="33.33333333333333" /><path d="M 282.3217,861.7841 A 422.2222,422.2222 0 0 1 209.6380,806.5314" fill="none" stroke="#4C6B85" stroke-linecap="butt" stroke-opacity="0.05" stroke-width="33.33333333333333" /><path d="M 209.6380,806.5314 A 422.2222,422.2222 0 0 1 150.5313,736.9456" fill="none" stroke="#4C6B85" stroke-linecap="butt" stroke-opacity="1.0" stroke-width="33.33333333333333" /><path d="M 150.5313,736.9456 A 422.2222,422.2222 0 0 1 107.7654,656.2806" fill="none" stroke="#4C6B85" stroke-linecap="butt" stroke-opacity="1.0" stroke-width="33.33333333333333" /><path d="M 107.7654,656.2806 A 422.2222,422.2222 0 0 1 83.3399,568.3080" fill="none" stroke="#4C6B85" stroke-linecap="butt" stroke-opacity="1.0" stroke-width="33.33333333333333" /><path d="M 83.3399,568.3080 A 422.2222,422.2222 0 0 1 78.3970,477.1413" fill="none" stroke="#4C6B85" stroke-linecap="butt" stroke-opacity="1.0" stroke-width="33.33333333333333" /><path d="M 78.3970,477.1413 A 422.2222,422.2222 0 0 1 93.1678,387.0436" fill="none" stroke="#4C6B85" stroke-linecap="butt" stroke-opacity="0.05" stroke-width="33.33333333333333" /><path d="M 93.1678,387.0436 A 422.2222,422.2222 0 0 1 126.9616,302.2275" fill="none" stroke="#4C6B85" stroke-linecap="butt" stroke-opacity="0.05" stroke-width="33.33333333333333" /><path d="M 126.9616,302.2275 A 422.2222,422.2222 0 0 1 178.1982,226.6591" fill="none" stroke="#4C6B85" stroke-linecap="butt" stroke-opacity="1.0" stroke-width="33.33333333333333" /><path d="M 178.1982,226.6591 A 422.2222,422.2222 0 0 1 244.4820,163.8718" fill="none" stroke="#4C6B85" stroke-linecap="butt" stroke-opacity="0.05" stroke-width="33.33333333333333" /><path d="M 244.4820,163.8718 A 422.2222,422.2222 0 0 1 322.7135,116.8015" fill="none" stroke="#4C6B85" stroke-linecap="butt" stroke-opacity="0.05" stroke-width="33.33333333333333" /><path d="M 322.7135,116.8015 A 422.2222,422.2222 0 0 1 409.2347,87.6491" fill="none" stroke="#4C6B85" stroke-linecap="butt" stroke-opacity="1.0" stroke-width="33.33333333333333" /><path d="M 409.2347,87.6491 A 422.2222,422.2222 0 0 1 500.0000,77.7778" fill="none" stroke="#4C6B85" stroke-linecap="butt" stroke-opacity="0.05" stroke-width="33.33333333333333" /><path d="M 500.0000,114.8649 A 385.1351,385.1351 0 0 1 582.7927,123.8691" fill="none" stroke="#00D4FF" stroke-linecap="butt" stroke-opacity="0.05" stroke-width="33.33333333333333" /><path d="M 582.7927,123.8691 A 385.1351,385.1351 0 0 1 661.7140,150.4608" fill="none" stroke="#00D4FF" stroke-linecap="butt" stroke-opacity="0.05" stroke-width="33.33333333333333" /><path d="M 661.7140,150.4608 A 385.1351,385.1351 0 0 1 733.0739,193.3966" fill="none" stroke="#00D4FF" stroke-linecap="butt" stroke-opacity="0.05" stroke-width="33.33333333333333" /><path d="M 733.0739,193.3966 A 385.1351,385.1351 0 0 1 793.5354,250.6688" fill="none" stroke="#00D4FF" stroke-linecap="butt" stroke-opacity="0.05" stroke-width="33.33333333333333" /><path d="M 793.5354,250.6688 A 385.1351,385.1351 0 0 1 840.2715,319.5995" fill="none" stroke="#00D4FF" stroke-linecap="butt" stroke-opacity="0.05" stroke-width="33.33333333333333" /><path d="M 840.2715,319.5995 A 385.1351,385.1351 0 0 1 871.0970,396.9654" fill="none" stroke="#00D4FF" stroke-linecap="butt" stroke-opacity="1.0" stroke-width="33.33333333333333" /><path d="M 871.0970,396.9654 A 385.1351,385.1351 0 0 1 884.5703,479.1492" fill="none" stroke="#00D4FF" stroke-linecap="butt" stroke-opacity="0.05" stroke-width="33.33333333333333" /><path d="M 884.5703,479.1492 A 385.1351,385.1351 0 0 1 880.0616,562.3079" fill="none" stroke="#00D4FF" stroke-linecap="butt" stroke-opacity="0.05" stroke-width="33.33333333333333" /><path d="M 880.0616,562.3079 A 385.1351,385.1351 0 0 1 857.7816,642.5532" fill="none" stroke="#00D4FF" stroke-linecap="butt" stroke-opacity="1.0" stroke-width="33.33333333333333" /><path d="M 857.7816,642.5532 A 385.1351,385.1351 0 0 1 818.7721,716.1329" fill="none" stroke="#00D4FF" stroke-linecap="butt" stroke-opacity="0.05" stroke-width="33.33333333333333" /><path d="M 818.7721,716.1329 A 385.1351,385.1351 0 0 1 764.8572,779.6064" fill="none" stroke="#00D4FF" stroke-linecap="butt" stroke-opacity="0.05" stroke-width="33.33333333333333" /><path d="M 764.8572,779.6064 A 385.1351,385.1351 0 0 1 698.5579,830.0058" fill="none" stroke="#00D4FF" stroke-linecap="butt" stroke-opacity="0.05" stroke-width="33.33333333333333" /><path d="M 698.5579,830.0058 A 385.1351,385.1351 0 0 1 622.9742,864.9745" fill="none" stroke="#00D4FF" stroke-linecap="butt" stroke-opacity="0.05" stroke-width="33.33333333333333" /><path d="M 622.9742,864.9745 A 385.1351,385.1351 0 0 1 541.6404,882.8775" fill="none" stroke="#00D4FF" stroke-linecap="butt" stroke-opacity="0.05" stroke-width="33.33333333333333" /><path d="M 541.6404,882.8775 A 385.1351,385.1351 0 0 1 458.3596,882.8775" fill="none" stroke="#00D4FF" stroke-linecap="butt" stroke-opacity="0.05" stroke-width="33.33333333333333" /><path d="M 458.3596,882.8775 A 385.1351,385.1351 0 0 1 377.0258,864.9745" fill="none" stroke="#00D4FF" stroke-linecap="butt" stroke-opacity="1.0" stroke-width="33.33333333333333" /><path d="M 377.0258,864.9745 A 385.1351,385.1351 0 0 1 301.4421,830.0058" fill="none" stroke="#00D4FF" stroke-linecap="butt" stroke-opacity="0.05" stroke-width="33.33333333333333" /><path d="M 301.4421,830.0058 A 385.1351,385.1351 0 0 1 235.1428,779.6064" fill="none" stroke="#00D4FF" stroke-linecap="butt" stroke-opacity="0.05" stroke-width="33.33333333333333" /><path d="M 235.1428,779.6064 A 385.1351,385.1351 0 0 1 181.2279,716.1329" fill="none" stroke="#00D4FF" stroke-linecap="butt" stroke-opacity="0.05" stroke-width="33.33333333333333" /><path d="M 181.2279,716.1329 A 385.1351,385.1351 0 0 1 142.2184,642.5532" fill="none" stroke="#00D4FF" stroke-linecap="butt" stroke-opacity="1.0" stroke-width="33.33333333333333" /><path d="M 142.2184,642.5532 A 385.1351,385.1351 0 0 1 119.9384,562.3079" fill="none" stroke="#00D4FF" stroke-linecap="butt" stroke-opacity="0.05" stroke-width="33.33333333333333" /><path d="M 119.9384,562.3079 A 385.1351,385.1351 0 0 1 115.4297,479.1492" fill="none" stroke="#00D4FF" stroke-linecap="butt" stroke-opacity="0.05" stroke-width="33.33333333333333" /><path d="M 115.4297,479.1492 A 385.1351,385.1351 0 0 1 128.9030,396.9654" fill="none" stroke="#00D4FF" stroke-linecap="butt" stroke-opacity="0.05" stroke-width="33.33333333333333" /><path d="M 128.9030,396.9654 A 385.1351,385.1351 0 0 1 159.7285,319.5995" fill="none" stroke="#00D4FF" stroke-linecap="butt" stroke-opacity="0.05" stroke-width="33.33333333333333" /><path d="M 159.7285,319.5995 A 385.1351,385.1351 0 0 1 206.4646,250.6688" fill="none" stroke="#00D4FF" stroke-linecap="butt" stroke-opacity="0.05" stroke-width="33.33333333333333" /><path d="M 206.4646,250.6688 A 385.1351,385.1351 0 0 1 266.9261,193.3966" fill="none" stroke="#00D4FF" stroke-linecap="butt" stroke-opacity="1.0" stroke-width="33.33333333333333" /><path d="M 266.9261,193.3966 A 385.1351,385.1351 0 0 1 338.2860,150.4608" fill="none" stroke="#00D4FF" stroke-linecap="butt" stroke-opacity="1.0" stroke-width="33.33333333333333" /><path d="M 338.2860,150.4608 A 385.1351,385.1351 0 0 1 417.2073,123.8691" fill="none" stroke="#00D4FF" stroke-linecap="butt" stroke-opacity="1.0" stroke-width="33.33333333333333" /><path d="M 417.2073,123.8691 A 385.1351,385.1351 0 0 1 500.0000,114.8649" fill="none" stroke="#00D4FF" stroke-linecap="butt" stroke-opacity="0.05" stroke-width="33.33333333333333" /><path d="M 500.0000,130.5556 A 369.4444,369.4444 0 0 1 579.4196,139.1930" fill="none" stroke="#4C6B85" stroke-linecap="butt" stroke-opacity="0.05" stroke-width="33.33333333333333" /><path d="M 579.4196,139.1930 A 369.4444,369.4444 0 0 1 655.1257,164.7013" fill="none" stroke="#4C6B85" stroke-linecap="butt" stroke-opacity="0.05" stroke-width="33.33333333333333" /><path d="M 655.1257,164.7013 A 369.4444,369.4444 0 0 1 723.5783,205.8878" fill="none" stroke="#4C6B85" stroke-linecap="butt" stroke-opacity="0.05" stroke-width="33.33333333333333" /><path d="M 723.5783,205.8878 A 369.4444,369.4444 0 0 1 781.5765,260.8267" fill="none" stroke="#4C6B85" stroke-linecap="butt" stroke-opacity="0.05" stroke-width="33.33333333333333" /><path d="M 781.5765,260.8267 A 369.4444,369.4444 0 0 1 826.4086,326.9491" fill="none" stroke="#4C6B85" stroke-linecap="butt" stroke-opacity="0.05" stroke-width="33.33333333333333" /><path d="M 826.4086,326.9491 A 369.4444,369.4444 0 0 1 855.9782,401.1631" fill="none" stroke="#4C6B85" stroke-linecap="butt" stroke-opacity="0.05" stroke-width="33.33333333333333" /><path d="M 855.9782,401.1631 A 369.4444,369.4444 0 0 1 868.9026,479.9987" fill="none" stroke="#4C6B85" stroke-linecap="butt" stroke-opacity="0.05" stroke-width="33.33333333333333" /><path d="M 868.9026,479.9987 A 369.4444,369.4444 0 0 1 864.5776,559.7695" fill="none" stroke="#4C6B85" stroke-linecap="butt" stroke-opacity="0.05" stroke-width="33.33333333333333" /><path d="M 864.5776,559.7695 A 369.4444,369.4444 0 0 1 843.2053,636.7455" fill="none" stroke="#4C6B85" stroke-linecap="butt" stroke-opacity="0.05" stroke-width="33.33333333333333" /><path d="M 843.2053,636.7455 A 369.4444,369.4444 0 0 1 805.7851,707.3274" fill="none" stroke="#4C6B85" stroke-linecap="butt" stroke-opacity="0.05" stroke-width="33.33333333333333" /><path d="M 805.7851,707.3274 A 369.4444,369.4444 0 0 1 754.0667,768.2150" fill="none" stroke="#4C6B85" stroke-linecap="butt" stroke-opacity="0.05" stroke-width="33.33333333333333" /><path d="M 754.0667,768.2150 A 369.4444,369.4444 0 0 1 690.4685,816.5611" fill="none" stroke="#4C6B85" stroke-linecap="butt" stroke-opacity="0.05" stroke-width="33.33333333333333" /><path d="M 690.4685,816.5611 A 369.4444,369.4444 0 0 1 617.9642,850.1052" fill="none" stroke="#4C6B85" stroke-linecap="butt" stroke-opacity="0.05" stroke-width="33.33333333333333" /><path d="M 617.9642,850.1052 A 369.4444,369.4444 0 0 1 539.9440,867.2787" fill="none" stroke="#4C6B85" stroke-linecap="butt" stroke-opacity="0.05" stroke-width="33.33333333333333" /><path d="M 539.9440,867.2787 A 369.4444,369.4444 0 0 1 460.0560,867.2787" fill="none" stroke="#4C6B85" stroke-linecap="butt" stroke-opacity="1.0" stroke-width="33.33333333333333" /><path d="M 460.0560,867.2787 A 369.4444,369.4444 0 0 1 382.0358,850.1052" fill="none" stroke="#4C6B85" stroke-linecap="butt" stroke-opacity="0.05" stroke-width="33.33333333333333" /><path d="M 382.0358,850.1052 A 369.4444,369.4444 0 0 1 309.5315,816.5611" fill="none" stroke="#4C6B85" stroke-linecap="butt" stroke-opacity="0.05" stroke-width="33.33333333333333" /><path d="M 309.5315,816.5611 A 369.4444,369.4444 0 0 1 245.9333,768.2150" fill="none" stroke="#4C6B85" stroke-linecap="butt" stroke-opacity="0.05" stroke-width="33.33333333333333" /><path d="M 245.9333,768.2150 A 369.4444,369.4444 0 0 1 194.2149,707.3274" fill="none" stroke="#4C6B85" stroke-linecap="butt" stroke-opacity="0.05" stroke-width="33.33333333333333" /><path d="M 194.2149,707.3274 A 369.4444,369.4444 0 0 1 156.7947,636.7455" fill="none" stroke="#4C6B85" stroke-linecap="butt" stroke-opacity="0.05" stroke-width="33.33333333333333" /><path d="M 156.7947,636.7455 A 369.4444,369.4444 0 0 1 135.4224,559.7695" fill="none" stroke="#4C6B85" stroke-linecap="butt" stroke-opacity="0.05" stroke-width="33.33333333333333" /><path d="M 135.4224,559.7695 A 369.4444,369.4444 0 0 1 131.0974,479.9987" fill="none" stroke="#4C6B85" stroke-linecap="butt" stroke-opacity="0.05" stroke-width="33.33333333333333" /><path d="M 131.0974,479.9987 A 369.4444,369.4444 0 0 1 144.0218,401.1631" fill="none" stroke="#4C6B85" stroke-linecap="butt" stroke-opacity="0.05" stroke-width="33.33333333333333" /><path d="M 144.0218,401.1631 A 369.4444,369.4444 0 0 1 173.5914,326.9491" fill="none" stroke="#4C6B85" stroke-linecap="butt" stroke-opacity="0.05" stroke-width="33.33333333333333" /><path d="M 173.5914,326.9491 A 369.4444,369.4444 0 0 1 218.4235,260.8267" fill="none" stroke="#4C6B85" stroke-linecap="butt" stroke-opacity="0.05" stroke-width="33.33333333333333" /><path d="M 218.4235,260.8267 A 369.4444,369.4444 0 0 1 276.4217,205.8878" fill="none" stroke="#4C6B85" stroke-linecap="butt" stroke-opacity="1.0" stroke-width="33.33333333333333" /><path d="M 276.4217,205.8878 A 369.4444,369.4444 0 0 1 344.8743,164.7013" fill="none" stroke="#4C6B85" stroke-linecap="butt" stroke-opacity="0.05" stroke-width="33.33333333333333" /><path d="M 344.8743,164.7013 A 369.4444,369.4444 0 0 1 420.5804,139.1930" fill="none" stroke="#4C6B85" stroke-linecap="butt" stroke-opacity="0.05" stroke-width="33.33333333333333" /><path d="M 420.5804,139.1930 A 369.4444,369.4444 0 0 1 500.0000,130.5556" fill="none" stroke="#4C6B85" stroke-linecap="butt" stroke-opacity="0.05" stroke-width="33.33333333333333" /><path d="M 500.0000,154.8048 A 345.1952,345.1952 0 0 1 660.4202,194.3448" fill="none" stroke="#E64A12" stroke-linecap="butt" stroke-opacity="1.0" stroke-width="33.33333333333333" /><path d="M 660.4202,194.3448 A 345.1952,345.1952 0 0 1 784.0901,303.9068" fill="none" stroke="#E64A12" stroke-linecap="butt" stroke-opacity="0.05" stroke-width="33.33333333333333" /><path d="M 784.0901,303.9068 A 345.1952,345.1952 0 0 1 842.6783,458.3913" fill="none" stroke="#E64A12" stroke-linecap="butt" stroke-opacity="0.05" stroke-width="33.33333333333333" /><path d="M 842.6783,458.3913 A 345.1952,345.1952 0 0 1 822.7631,622.4079" fill="none" stroke="#E64A12" stroke-linecap="butt" stroke-opacity="1.0" stroke-width="33.33333333333333" /><path d="M 822.7631,622.4079 A 345.1952,345.1952 0 0 1 728.9068,758.3823" fill="none" stroke="#E64A12" stroke-linecap="butt" stroke-opacity="1.0" stroke-width="33.33333333333333" /><path d="M 728.9068,758.3823 A 345.1952,345.1952 0 0 1 582.6106,835.1645" fill="none" stroke="#E64A12" stroke-linecap="butt" stroke-opacity="0.05" stroke-width="33.33333333333333" /><path d="M 582.6106,835.1645 A 345.1952,345.1952 0 0 1 417.3894,835.1645" fill="none" stroke="#E64A12" stroke-linecap="butt" stroke-opacity="0.05" stroke-width="33.33333333333333" /><path d="M 417.3894,835.1645 A 345.1952,345.1952 0 0 1 271.0932,758.3823" fill="none" stroke="#E64A12" stroke-linecap="butt" stroke-opacity="1.0" stroke-width="33.33333333333333" /><path d="M 271.0932,758.3823 A 345.1952,345.1952 0 0 1 177.2369,622.4079" fill="none" stroke="#E64A12" stroke-linecap="butt" stroke-opacity="0.05" stroke-width="33.33333333333333" /><path d="M 177.2369,622.4079 A 345.1952,345.1952 0 0 1 157.3217,458.3913" fill="none" stroke="#E64A12" stroke-linecap="butt" stroke-opacity="0.05" stroke-width="33.33333333333333" /><path d="M 157.3217,458.3913 A 345.1952,345.1952 0 0 1 215.9099,303.9068" fill="none" stroke="#E64A12" stroke-linecap="butt" stroke-opacity="1.0" stroke-width="33.33333333333333" /><path d="M 215.9099,303.9068 A 345.1952,345.1952 0 0 1 339.5798,194.3448" fill="none" stroke="#E64A12" stroke-linecap="butt" stroke-opacity="1.0" stroke-width="33.33333333333333" /><path d="M 339.5798,194.3448 A 345.1952,345.1952 0 0 1 500.0000,154.8048" fill="none" stroke="#E64A12" stroke-linecap="butt" stroke-opacity="0.05" stroke-width="33.33333333333333" /><path d="M 500.0000,186.1862 A 313.8138,313.8138 0 0 1 745.3495,304.3403" fill="none" stroke="#1D9FD6" stroke-linecap="butt" stroke-opacity="0.05" stroke-width="33.33333333333333" /><path d="M 745.3495,304.3403 A 313.8138,313.8138 0 0 1 805.9458,569.8301" fill="none" stroke="#1D9FD6" stroke-linecap="butt" stroke-opacity="0.05" stroke-width="33.33333333333333" /><path d="M 805.9458,569.8301 A 313.8138,313.8138 0 0 1 636.1587,782.7365" fill="none" stroke="#1D9FD6" stroke-linecap="butt" stroke-opacity="0.05" stroke-width="33.33333333333333" /><path d="M 636.1587,782.7365 A 313.8138,313.8138 0 0 1 363.8413,782.7365" fill="none" stroke="#1D9FD6" stroke-linecap="butt" stroke-opacity="0.05" stroke-width="33.33333333333333" /><path d="M 363.8413,782.7365 A 313.8138,313.8138 0 0 1 194.0542,569.8301" fill="none" stroke="#1D9FD6" stroke-linecap="butt" stroke-opacity="0.05" stroke-width="33.33333333333333" /><path d="M 194.0542,569.8301 A 313.8138,313.8138 0 0 1 254.6505,304.3403" fill="none" stroke="#1D9FD6" stroke-linecap="butt" stroke-opacity="0.05" stroke-width="33.33333333333333" /><path d="M 254.6505,304.3403 A 313.8138,313.8138 0 0 1 500.0000,186.1862" fill="none" stroke="#1D9FD6" stroke-linecap="butt" stroke-opacity="1.0" stroke-width="33.33333333333333" /><path d="M 500.0000,203.3033 A 296.6967,296.6967 0 0 1 690.7130,272.7171" fill="none" stroke="#1D9FD6" stroke-linecap="butt" stroke-opacity="1.0" stroke-width="33.33333333333333" /><path d="M 690.7130,272.7171 A 296.6967,296.6967 0 0 1 792.1892,448.4792" fill="none" stroke="#1D9FD6" stroke-linecap="butt" stroke-opacity="1.0" stroke-width="33.33333333333333" /><path d="M 792.1892,448.4792 A 296.6967,296.6967 0 0 1 756.9469,648.3483" fill="none" stroke="#1D9FD6" stroke-linecap="butt" stroke-opacity="1.0" stroke-width="33.33333333333333" /><path d="M 756.9469,648.3483 A 296.6967,296.6967 0 0 1 601.4762,778.8037" fill="none" stroke="#1D9FD6" stroke-linecap="butt" stroke-opacity="1.0" stroke-width="33.33333333333333" /><path d="M 601.4762,778.8037 A 296.6967,296.6967 0 0 1 398.5238,778.8037" fill="none" stroke="#1D9FD6" stroke-linecap="butt" stroke-opacity="0.05" stroke-width="33.33333333333333" /><path d="M 398.5238,778.8037 A 296.6967,296.6967 0 0 1 243.0531,648.3483" fill="none" stroke="#1D9FD6" stroke-linecap="butt" stroke-opacity="0.05" stroke-width="33.33333333333333" /><path d="M 243.0531,648.3483 A 296.6967,296.6967 0 0 1 207.8108,448.4792" fill="none" stroke="#1D9FD6" stroke-linecap="butt" stroke-opacity="0.05" stroke-width="33.33333333333333" /><path d="M 207.8108,448.4792 A 296.6967,296.6967 0 0 1 309.2870,272.7171" fill="none" stroke="#1D9FD6" stroke-linecap="butt" stroke-opacity="0.05" stroke-width="33.33333333333333" /><path d="M 309.2870,272.7171 A 296.6967,296.6967 0 0 1 500.0000,203.3033" fill="none" stroke="#1D9FD6" stroke-linecap="butt" stroke-opacity="0.05" stroke-width="33.33333333333333" /><path d="M 500.0000,216.1411 A 283.8589,283.8589 0 0 1 631.9158,248.6555" fill="none" stroke="#1D9FD6" stroke-linecap="butt" stroke-opacity="0.05" stroke-width="33.33333333333333" /><path d="M 631.9158,248.6555 A 283.8589,283.8589 0 0 1 733.6113,338.7498" fill="none" stroke="#1D9FD6" stroke-linecap="butt" stroke-opacity="0.05" stroke-width="33.33333333333333" /><path d="M 733.6113,338.7498 A 283.8589,283.8589 0 0 1 781.7892,465.7846" fill="none" stroke="#1D9FD6" stroke-linecap="butt" stroke-opacity="0.05" stroke-width="33.33333333333333" /><path d="M 781.7892,465.7846 A 283.8589,283.8589 0 0 1 765.4126,600.6577" fill="none" stroke="#1D9FD6" stroke-linecap="butt" stroke-opacity="0.05" stroke-width="33.33333333333333" /><path d="M 765.4126,600.6577 A 283.8589,283.8589 0 0 1 688.2332,712.4714" fill="none" stroke="#1D9FD6" stroke-linecap="butt" stroke-opacity="0.05" stroke-width="33.33333333333333" /><path d="M 688.2332,712.4714 A 283.8589,283.8589 0 0 1 567.9319,775.6104" fill="none" stroke="#1D9FD6" stroke-linecap="butt" stroke-opacity="0.05" stroke-width="33.33333333333333" /><path d="M 567.9319,775.6104 A 283.8589,283.8589 0 0 1 432.0681,775.6104" fill="none" stroke="#1D9FD6" stroke-linecap="butt" stroke-opacity="1.0" stroke-width="33.33333333333333" /><path d="M 432.0681,775.6104 A 283.8589,283.8589 0 0 1 311.7668,712.4714" fill="none" stroke="#1D9FD6" stroke-linecap="butt" stroke-opacity="0.05" stroke-width="33.33333333333333" /><path d="M 311.7668,712.4714 A 283.8589,283.8589 0 0 1 234.5874,600.6577" fill="none" stroke="#1D9FD6" stroke-linecap="butt" stroke-opacity="0.05" stroke-width="33.33333333333333" /><path d="M 234.5874,600.6577 A 283.8589,283.8589 0 0 1 218.2108,465.7846" fill="none" stroke="#1D9FD6" stroke-linecap="butt" stroke-opacity="0.05" stroke-width="33.33333333333333" /><path d="M 218.2108,465.7846 A 283.8589,283.8589 0 0 1 266.3887,338.7498" fill="none" stroke="#1D9FD6" stroke-linecap="butt" stroke-opacity="0.05" stroke-width="33.33333333333333" /><path d="M 266.3887,338.7498 A 283.8589,283.8589 0 0 1 368.0842,248.6555" fill="none" stroke="#1D9FD6" stroke-linecap="butt" stroke-opacity="0.05" stroke-width="33.33333333333333" /><path d="M 368.0842,248.6555 A 283.8589,283.8589 0 0 1 500.0000,216.1411" fill="none" stroke="#1D9FD6" stroke-linecap="butt" stroke-opacity="0.05" stroke-width="33.33333333333333" /><path d="M 500.0000,274.6246 A 225.3754,225.3754 0 0 1 714.3447,430.3552" fill="none" stroke="#E64A12" stroke-linecap="butt" stroke-opacity="0.05" stroke-width="33.33333333333333" /><path d="M 714.3447,430.3552 A 225.3754,225.3754 0 0 1 632.4723,682.3325" fill="none" stroke="#E64A12" stroke-linecap="butt" stroke-opacity="1.0" stroke-width="33.33333333333333" /><path d="M 632.4723,682.3325 A 225.3754,225.3754 0 0 1 367.5277,682.3325" fill="none" stroke="#E64A12" stroke-linecap="butt" stroke-opacity="0.05" stroke-width="33.33333333333333" /><path d="M 367.5277,682.3325 A 225.3754,225.3754 0 0 1 285.6553,430.3552" fill="none" stroke="#E64A12" stroke-linecap="butt" stroke-opacity="1.0" stroke-width="33.33333333333333" /><path d="M 285.6553,430.3552 A 225.3754,225.3754 0 0 1 500.0000,274.6246" fill="none" stroke="#E64A12" stroke-linecap="butt" stroke-opacity="0.05" stroke-width="33.33333333333333" /></svg>