<svg baseProfile="full" height="800px" version="1.1" viewBox="0 0 1000 1000" width="800px" xmlns="http://www.w3.org/2000/svg" xmlns:ev="http://www.w3.org/2001/xml-events" xmlns:xlink="http://www.w3.org/1999/xlink"><defs /><path d="M 500.0000,135.4815 A 364.5185,364.5185 0 0 1 578.3607,144.0037" fill="none" stroke="#4C6B85" stroke-linecap="butt" stroke-opacity="0.05" stroke-width="33.33333333333333" /><path d="M 578.3607,144.0037 A 364.5185,364.5185 0 0 1 653.0574,169.1720" fill="none" stroke="#4C6B85" stroke-linecap="butt" stroke-opacity="0.05" stroke-width="33.33333333333333" /><path d="M 653.0574,169.1720 A 364.5185,364.5185 0 0 1 720.5972,209.8093" fill="none" stroke="#4C6B85" stroke-linecap="butt" stroke-opacity="0.05" stroke-width="33.33333333333333" /><path d="M 720.5972,209.8093 A 364.5185,364.5185 0 0 1 777.8222,264.0157" fill="none" stroke="#4C6B85" stroke-linecap="butt" stroke-opacity="0.05" stroke-width="33.33333333333333" /><path d="M 777.8222,264.0157 A 364.5185,364.5185 0 0 1 822.0565,329.2564" fill="none" stroke="#4C6B85" stroke-linecap="butt" stroke-opacity="0.05" stroke-width="33.33333333333333" /><path d="M 822.0565,329.2564 A 364.5185,364.5185 0 0 1 851.2318,402.4810" fill="none" stroke="#4C6B85" stroke-linecap="butt" stroke-opacity="0.05" stroke-width="33.33333333333333" /><path d="M 851.2318,402.4810 A 364.5185,364.5185 0 0 1 863.9839,480.2654" fill="none" stroke="#4C6B85" stroke-linecap="butt" stroke-opacity="0.05" stroke-width="33.33333333333333" /><path d="M 863.9839,480.2654 A 364.5185,364.5185 0 0 1 859.7165,558.9725" fill="none" stroke="#4C6B85" stroke-linecap="butt" stroke-opacity="0.05" stroke-width="33.33333333333333" /><path d="M 859.7165,558.9725 A 364.5185,364.5185 0 0 1 838.6292,634.9222" fill="none" stroke="#4C6B85" stroke-linecap="butt" stroke-opacity="0.05" stroke-width="33.33333333333333" /><path d="M 838.6292,634.9222 A 364.5185,364.5185 0 0 1 801.7080,704.5631" fill="none" stroke="#4C6B85" stroke-linecap="butt" stroke-opacity="0.05" stroke-width="33.33333333333333" /><path d="M 801.7080,704.5631 A 364.5185,364.5185 0 0 1 750.6792,764.6388" fill="none" stroke="#4C6B85" stroke-linecap="butt" stroke-opacity="0.05" stroke-width="33.33333333333333" /><path d="M 750.6792,764.6388 A 364.5185,364.5185 0 0 1 687.9289,812.3403" fill="none" stroke="#4C6B85" stroke-linecap="butt" stroke-opacity="0.05" stroke-width="33.33333333333333" /><path d="M 687.9289,812.3403 A 364.5185,364.5185 0 0 1 616.3913,845.4371" fill="none" stroke="#4C6B85" stroke-linecap="butt" stroke-opacity="0.05" stroke-width="33.33333333333333" /><path d="M 616.3913,845.4371 A 364.5185,364.5185 0 0 1 539.4114,862.3817" fill="none" stroke="#4C6B85" stroke-linecap="butt" stroke-opacity="0.05" stroke-width="33.33333333333333" /><path d="M 539.4114,862.3817 A 364.5185,364.5185 0 0 1 460.5886,862.3817" fill="none" stroke="#4C6B85" stroke-linecap="butt" stroke-opacity="0.05" stroke-width="33.33333333333333" /><path d="M 460.5886,862.3817 A 364.5185,364.5185 0 0 1 383.6087,845.4371" fill="none" stroke="#4C6B85" stroke-linecap="butt" stroke-opacity="0.05" stroke-width="33.33333333333333" /><path d="M 383.6087,845.4371 A 364.5185,364.5185 0 0 1 312.0711,812.3403" fill="none" stroke="#4C6B85" stroke-linecap="butt" stroke-opacity="1.0" stroke-width="33.33333333333333" /><path d="M 312.0711,812.3403 A 364.5185,364.5185 0 0 1 249.3208,764.6388" fill="none" stroke="#4C6B85" stroke-linecap="butt" stroke-opacity="0.05" stroke-width="33.33333333333333" /><path d="M 249.3208,764.6388 A 364.5185,364.5185 0 0 1 198.2920,704.5631" fill="none" stroke="#4C6B85" stroke-linecap="butt" stroke-opacity="1.0" stroke-width="33.33333333333333" /><path d="M 198.2920,704.5631 A 364.5185,364.5185 0 0 1 161.3708,634.9222" fill="none" stroke="#4C6B85" stroke-linecap="butt" stroke-opacity="0.05" stroke-width="33.33333333333333" /><path d="M 161.3708,634.9222 A 364.5185,364.5185 0 0 1 140.2835,558.9725" fill="none" stroke="#4C6B85" stroke-linecap="butt" stroke-opacity="0.05" stroke-width="33.33333333333333" /><path d="M 140.2835,558.9725 A 364.5185,364.5185 0 0 1 136.0161,480.2654" fill="none" stroke="#4C6B85" stroke-linecap="butt" stroke-opacity="0.05" stroke-width="33.33333333333333" /><path d="M 136.0161,480.2654 A 364.5185,364.5185 0 0 1 148.7682,402.4810" fill="none" stroke="#4C6B85" stroke-linecap="butt" stroke-opacity="0.05" stroke-width="33.33333333333333" /><path d="M 148.7682,402.4810 A 364.5185,364.5185 0 0 1 177.9435,329.2564" fill="none" stroke="#4C6B85" stroke-linecap="butt" stroke-opacity="0.05" stroke-width="33.33333333333333" /><path d="M 177.9435,329.2564 A 364.5185,364.5185 0 0 1 222.1778,264.0157" fill="none" stroke="#4C6B85" stroke-linecap="butt" stroke-opacity="0.05" stroke-width="33.33333333333333" /><path d="M 222.1778,264.0157 A 364.5185,364.5185 0 0 1 279.4028,209.8093" fill="none" stroke="#4C6B85" stroke-linecap="butt" stroke-opacity="0.05" stroke-width="33.33333333333333" /><path d="M 279.4028,209.8093 A 364.5185,364.5185 0 0 1 346.9426,169.1720" fill="none" stroke="#4C6B85" stroke-linecap="butt" stroke-opacity="0.05" stroke-width="33.33333333333333" /><path d="M 346.9426,169.1720 A 364.5185,364.5185 0 0 1 421.6393,144.0037" fill="none" stroke="#4C6B85" stroke-linecap="butt" stroke-opacity="0.05" stroke-width="33.33333333333333" /><path d="M 421.6393,144.0037 A 364.5185,364.5185 0 0 1 500.0000,135.4815" fill="none" stroke="#4C6B85" stroke-linecap="butt" stroke-opacity="0.05" stroke-width="33.33333333333333" /></svg>