<svg baseProfile="full" height="800px" version="1.1" viewBox="0 0 1000 1000" width="800px" xmlns="http://www.w3.org/2000/svg" xmlns:ev="http://www.w3.org/2001/xml-events" xmlns:xlink="http://www.w3.org/1999/xlink"><defs /><path d="M 500.0000,190.3704 A 309.6296,309.6296 0 0 1 742.0782,306.9491" fill="none" stroke="#1D9FD6" stroke-linecap="butt" stroke-opacity="0.05" stroke-width="33.33333333333333" /><path d="M 742.0782,306.9491 A 309.6296,309.6296 0 0 1 801.8666,568.8991" fill="none" stroke="#1D9FD6" stroke-linecap="butt" stroke-opacity="0.05" stroke-width="33.33333333333333" /><path d="M 801.8666,568.8991 A 309.6296,309.6296 0 0 1 634.3433,778.9667" fill="none" stroke="#1D9FD6" stroke-linecap="butt" stroke-opacity="0.05" stroke-width="33.33333333333333" /><path d="M 634.3433,778.9667 A 309.6296,309.6296 0 0 1 365.6567,778.9667" fill="none" stroke="#1D9FD6" stroke-linecap="butt" stroke-opacity="0.05" stroke-width="33.33333333333333" /><path d="M 365.6567,778.9667 A 309.6296,309.6296 0 0 1 198.1334,568.8991" fill="none" stroke="#1D9FD6" stroke-linecap="butt" stroke-opacity="1.0" stroke-width="33.33333333333333" /><path d="M 198.1334,568.8991 A 309.6296,309.6296 0 0 1 257.9218,306.9491" fill="none" stroke="#1D9FD6" stroke-linecap="butt" stroke-opacity="0.05" stroke-width="33.33333333333333" /><path d="M 257.9218,306.9491 A 309.6296,309.6296 0 0 1 500.0000,190.3704" fill="none" stroke="#1D9FD6" stroke-linecap="butt" stroke-opacity="0.05" stroke-width="33.33333333333333" /></svg>