<svg baseProfile="full" height="800px" version="1.1" viewBox="0 0 1000 1000" width="800px" xmlns="http://www.w3.org/2000/svg" xmlns:ev="http://www.w3.org/2001/xml-events" xmlns:xlink="http://www.w3.org/1999/xlink"><defs /><path d="M 500.0000,159.4074 A 340.5926,340.5926 0 0 1 658.2813,198.4202" fill="none" stroke="#E64A12" stroke-linecap="butt" stroke-opacity="1.0" stroke-width="33.33333333333333" /><path d="M 658.2813,198.4202 A 340.5926,340.5926 0 0 1 780.3022,306.5214" fill="none" stroke="#E64A12" stroke-linecap="butt" stroke-opacity="1.0" stroke-width="33.33333333333333" /><path d="M 780.3022,306.5214 A 340.5926,340.5926 0 0 1 838.1093,458.9461" fill="none" stroke="#E64A12" stroke-linecap="butt" stroke-opacity="0.05" stroke-width="33.33333333333333" /><path d="M 838.1093,458.9461 A 340.5926,340.5926 0 0 1 818.4596,620.7758" fill="none" stroke="#E64A12" stroke-linecap="butt" stroke-opacity="0.05" stroke-width="33.33333333333333" /><path d="M 818.4596,620.7758 A 340.5926,340.5926 0 0 1 725.8547,754.9372" fill="none" stroke="#E64A12" stroke-linecap="butt" stroke-opacity="0.05" stroke-width="33.33333333333333" /><path d="M 725.8547,754.9372 A 340.5926,340.5926 0 0 1 581.5091,830.6956" fill="none" stroke="#E64A12" stroke-linecap="butt" stroke-opacity="0.05" stroke-width="33.33333333333333" /><path d="M 581.5091,830.6956 A 340.5926,340.5926 0 0 1 418.4909,830.6956" fill="none" stroke="#E64A12" stroke-linecap="butt" stroke-opacity="1.0" stroke-width="33.33333333333333" /><path d="M 418.4909,830.6956 A 340.5926,340.5926 0 0 1 274.1453,754.9372" fill="none" stroke="#E64A12" stroke-linecap="butt" stroke-opacity="0.05" stroke-width="33.33333333333333" /><path d="M 274.1453,754.9372 A 340.5926,340.5926 0 0 1 181.5404,620.7758" fill="none" stroke="#E64A12" stroke-linecap="butt" stroke-opacity="0.05" stroke-width="33.33333333333333" /><path d="M 181.5404,620.7758 A 340.5926,340.5926 0 0 1 161.8907,458.9461" fill="none" stroke="#E64A12" stroke-linecap="butt" stroke-opacity="0.05" stroke-width="33.33333333333333" /><path d="M 161.8907,458.9461 A 340.5926,340.5926 0 0 1 219.6978,306.5214" fill="none" stroke="#E64A12" stroke-linecap="butt" stroke-opacity="1.0" stroke-width="33.33333333333333" /><path d="M 219.6978,306.5214 A 340.5926,340.5926 0 0 1 341.7187,198.4202" fill="none" stroke="#E64A12" stroke-linecap="butt" stroke-opacity="1.0" stroke-width="33.33333333333333" /><path d="M 341.7187,198.4202 A 340.5926,340.5926 0 0 1 500.0000,159.4074" fill="none" stroke="#E64A12" stroke-linecap="butt" stroke-opacity="1.0" stroke-width="33.33333333333333" /></svg>