<svg baseProfile="full" height="800px" version="1.1" viewBox="0 0 1000 1000" width="800px" xmlns="http://www.w3.org/2000/svg" xmlns:ev="http://www.w3.org/2001/xml-events" xmlns:xlink="http://www.w3.org/1999/xlink"><defs /><path d="M 500.0000,219.9259 A 280.0741,280.0741 0 0 1 630.1569,252.0067" fill="none" stroke="#1D9FD6" stroke-linecap="butt" stroke-opacity="0.05" stroke-width="33.33333333333333" /><path d="M 630.1569,252.0067 A 280.0741,280.0741 0 0 1 730.4964,340.8998" fill="none" stroke="#1D9FD6" stroke-linecap="butt" stroke-opacity="1.0" stroke-width="33.33333333333333" /><path d="M 730.4964,340.8998 A 280.0741,280.0741 0 0 1 778.0320,466.2408" fill="none" stroke="#1D9FD6" stroke-linecap="butt" stroke-opacity="0.05" stroke-width="33.33333333333333" /><path d="M 778.0320,466.2408 A 280.0741,280.0741 0 0 1 761.8738,599.3156" fill="none" stroke="#1D9FD6" stroke-linecap="butt" stroke-opacity="0.05" stroke-width="33.33333333333333" /><path d="M 761.8738,599.3156 A 280.0741,280.0741 0 0 1 685.7235,709.6385" fill="none" stroke="#1D9FD6" stroke-linecap="butt" stroke-opacity="0.05" stroke-width="33.33333333333333" /><path d="M 685.7235,709.6385 A 280.0741,280.0741 0 0 1 567.0261,771.9356" fill="none" stroke="#1D9FD6" stroke-linecap="butt" stroke-opacity="0.05" stroke-width="33.33333333333333" /><path d="M 567.0261,771.9356 A 280.0741,280.0741 0 0 1 432.9739,771.9356" fill="none" stroke="#1D9FD6" stroke-linecap="butt" stroke-opacity="0.05" stroke-width="33.33333333333333" /><path d="M 432.9739,771.9356 A 280.0741,280.0741 0 0 1 314.2765,709.6385" fill="none" stroke="#1D9FD6" stroke-linecap="butt" stroke-opacity="0.05" stroke-width="33.33333333333333" /><path d="M 314.2765,709.6385 A 280.0741,280.0741 0 0 1 238.1262,599.3156" fill="none" stroke="#1D9FD6" stroke-linecap="butt" stroke-opacity="0.05" stroke-width="33.33333333333333" /><path d="M 238.1262,599.3156 A 280.0741,280.0741 0 0 1 221.9680,466.2408" fill="none" stroke="#1D9FD6" stroke-linecap="butt" stroke-opacity="0.05" stroke-width="33.33333333333333" /><path d="M 221.9680,466.2408 A 280.0741,280.0741 0 0 1 269.5036,340.8998" fill="none" stroke="#1D9FD6" stroke-linecap="butt" stroke-opacity="0.05" stroke-width="33.33333333333333" /><path d="M 269.5036,340.8998 A 280.0741,280.0741 0 0 1 369.8431,252.0067" fill="none" stroke="#1D9FD6" stroke-linecap="butt" stroke-opacity="0.05" stroke-width="33.33333333333333" /><path d="M 369.8431,252.0067 A 280.0741,280.0741 0 0 1 500.0000,219.9259" fill="none" stroke="#1D9FD6" stroke-linecap="butt" stroke-opacity="0.05" stroke-width="33.33333333333333" /></svg>