<svg baseProfile="full" height="800px" version="1.1" viewBox="0 0 1000 1000" width="800px" xmlns="http://www.w3.org/2000/svg" xmlns:ev="http://www.w3.org/2001/xml-events" xmlns:xlink="http://www.w3.org/1999/xlink"><defs /><path d="M 500.0000,120.0000 A 380.0000,380.0000 0 0 1 581.6888,128.8842" fill="none" stroke="#00D4FF" stroke-linecap="butt" stroke-opacity="0.05" stroke-width="33.33333333333333" /><path d="M 581.6888,128.8842 A 380.0000,380.0000 0 0 1 659.5579,155.1213" fill="none" stroke="#00D4FF" stroke-linecap="butt" stroke-opacity="0.05" stroke-width="33.33333333333333" /><path d="M 659.5579,155.1213 A 380.0000,380.0000 0 0 1 729.9662,197.4846" fill="none" stroke="#00D4FF" stroke-linecap="butt" stroke-opacity="0.05" stroke-width="33.33333333333333" /><path d="M 729.9662,197.4846 A 380.0000,380.0000 0 0 1 789.6216,253.9932" fill="none" stroke="#00D4FF" stroke-linecap="butt" stroke-opacity="1.0" stroke-width="33.33333333333333" /><path d="M 789.6216,253.9932 A 380.0000,380.0000 0 0 1 835.7346,322.0048" fill="none" stroke="#00D4FF" stroke-linecap="butt" stroke-opacity="0.05" stroke-width="33.33333333333333" /><path d="M 835.7346,322.0048 A 380.0000,380.0000 0 0 1 866.1490,398.3392" fill="none" stroke="#00D4FF" stroke-linecap="butt" stroke-opacity="1.0" stroke-width="33.33333333333333" /><path d="M 866.1490,398.3392 A 380.0000,380.0000 0 0 1 879.4427,479.4272" fill="none" stroke="#00D4FF" stroke-linecap="butt" stroke-opacity="0.05" stroke-width="33.33333333333333" /><path d="M 879.4427,479.4272 A 380.0000,380.0000 0 0 1 874.9941,561.4772" fill="none" stroke="#00D4FF" stroke-linecap="butt" stroke-opacity="0.05" stroke-width="33.33333333333333" /><path d="M 874.9941,561.4772 A 380.0000,380.0000 0 0 1 853.0112,640.6525" fill="none" stroke="#00D4FF" stroke-linecap="butt" stroke-opacity="0.05" stroke-width="33.33333333333333" /><path d="M 853.0112,640.6525 A 380.0000,380.0000 0 0 1 814.5218,713.2511" fill="none" stroke="#00D4FF" stroke-linecap="butt" stroke-opacity="1.0" stroke-width="33.33333333333333" /><path d="M 814.5218,713.2511 A 380.0000,380.0000 0 0 1 761.3258,775.8783" fill="none" stroke="#00D4FF" stroke-linecap="butt" stroke-opacity="0.05" stroke-width="33.33333333333333" /><path d="M 761.3258,775.8783 A 380.0000,380.0000 0 0 1 695.9105,825.6057" fill="none" stroke="#00D4FF" stroke-linecap="butt" stroke-opacity="1.0" stroke-width="33.33333333333333" /><path d="M 695.9105,825.6057 A 380.0000,380.0000 0 0 1 621.3346,860.1082" fill="none" stroke="#00D4FF" stroke-linecap="butt" stroke-opacity="1.0" stroke-width="33.33333333333333" /><path d="M 621.3346,860.1082 A 380.0000,380.0000 0 0 1 541.0852,877.7724" fill="none" stroke="#00D4FF" stroke-linecap="butt" stroke-opacity="1.0" stroke-width="33.33333333333333" /><path d="M 541.0852,877.7724 A 380.0000,380.0000 0 0 1 458.9148,877.7724" fill="none" stroke="#00D4FF" stroke-linecap="butt" stroke-opacity="0.05" stroke-width="33.33333333333333" /><path d="M 458.9148,877.7724 A 380.0000,380.0000 0 0 1 378.6654,860.1082" fill="none" stroke="#00D4FF" stroke-linecap="butt" stroke-opacity="0.05" stroke-width="33.33333333333333" /><path d="M 378.6654,860.1082 A 380.0000,380.0000 0 0 1 304.0895,825.6057" fill="none" stroke="#00D4FF" stroke-linecap="butt" stroke-opacity="0.05" stroke-width="33.33333333333333" /><path d="M 304.0895,825.6057 A 380.0000,380.0000 0 0 1 238.6742,775.8783" fill="none" stroke="#00D4FF" stroke-linecap="butt" stroke-opacity="0.05" stroke-width="33.33333333333333" /><path d="M 238.6742,775.8783 A 380.0000,380.0000 0 0 1 185.4782,713.2511" fill="none" stroke="#00D4FF" stroke-linecap="butt" stroke-opacity="0.05" stroke-width="33.33333333333333" /><path d="M 185.4782,713.2511 A 380.0000,380.0000 0 0 1 146.9888,640.6525" fill="none" stroke="#00D4FF" stroke-linecap="butt" stroke-opacity="0.05" stroke-width="33.33333333333333" /><path d="M 146.9888,640.6525 A 380.0000,380.0000 0 0 1 125.0059,561.4772" fill="none" stroke="#00D4FF" stroke-linecap="butt" stroke-opacity="0.05" stroke-width="33.33333333333333" /><path d="M 125.0059,561.4772 A 380.0000,380.0000 0 0 1 120.5573,479.4272" fill="none" stroke="#00D4FF" stroke-linecap="butt" stroke-opacity="0.05" stroke-width="33.33333333333333" /><path d="M 120.5573,479.4272 A 380.0000,380.0000 0 0 1 133.8510,398.3392" fill="none" stroke="#00D4FF" stroke-linecap="butt" stroke-opacity="0.05" stroke-width="33.33333333333333" /><path d="M 133.8510,398.3392 A 380.0000,380.0000 0 0 1 164.2654,322.0048" fill="none" stroke="#00D4FF" stroke-linecap="butt" stroke-opacity="1.0" stroke-width="33.33333333333333" /><path d="M 164.2654,322.0048 A 380.0000,380.0000 0 0 1 210.3784,253.9932" fill="none" stroke="#00D4FF" stroke-linecap="butt" stroke-opacity="0.05" stroke-width="33.33333333333333" /><path d="M 210.3784,253.9932 A 380.0000,380.0000 0 0 1 270.0338,197.4846" fill="none" stroke="#00D4FF" stroke-linecap="butt" stroke-opacity="0.05" stroke-width="33.33333333333333" /><path d="M 270.0338,197.4846 A 380.0000,380.0000 0 0 1 340.4421,155.1213" fill="none" stroke="#00D4FF" stroke-linecap="butt" stroke-opacity="0.05" stroke-width="33.33333333333333" /><path d="M 340.4421,155.1213 A 380.0000,380.0000 0 0 1 418.3112,128.8842" fill="none" stroke="#00D4FF" stroke-linecap="butt" stroke-opacity="0.05" stroke-width="33.33333333333333" /><path d="M 418.3112,128.8842 A 380.0000,380.0000 0 0 1 500.0000,120.0000" fill="none" stroke="#00D4FF" stroke-linecap="butt" stroke-opacity="0.05" stroke-width="33.33333333333333" /></svg>