<svg baseProfile="full" height="800px" version="1.1" viewBox="0 0 1000 1000" width="800px" xmlns="http://www.w3.org/2000/svg" xmlns:ev="http://www.w3.org/2001/xml-events" xmlns:xlink="http://www.w3.org/1999/xlink"><defs /><path d="M 500.0000,207.2593 A 292.7407,292.7407 0 0 1 688.1701,275.7476" fill="none" stroke="#1D9FD6" stroke-linecap="butt" stroke-opacity="1.0" stroke-width="33.33333333333333" /><path d="M 688.1701,275.7476 A 292.7407,292.7407 0 0 1 788.2934,449.1661" fill="none" stroke="#1D9FD6" stroke-linecap="butt" stroke-opacity="0.05" stroke-width="33.33333333333333" /><path d="M 788.2934,449.1661 A 292.7407,292.7407 0 0 1 753.5209,646.3704" fill="none" stroke="#1D9FD6" stroke-linecap="butt" stroke-opacity="0.05" stroke-width="33.33333333333333" /><path d="M 753.5209,646.3704 A 292.7407,292.7407 0 0 1 600.1232,775.0863" fill="none" stroke="#1D9FD6" stroke-linecap="butt" stroke-opacity="0.05" stroke-width="33.33333333333333" /><path d="M 600.1232,775.0863 A 292.7407,292.7407 0 0 1 399.8768,775.0863" fill="none" stroke="#1D9FD6" stroke-linecap="butt" stroke-opacity="0.05" stroke-width="33.33333333333333" /><path d="M 399.8768,775.0863 A 292.7407,292.7407 0 0 1 246.4791,646.3704" fill="none" stroke="#1D9FD6" stroke-linecap="butt" stroke-opacity="1.0" stroke-width="33.33333333333333" /><path d="M 246.4791,646.3704 A 292.7407,292.7407 0 0 1 211.7066,449.1661" fill="none" stroke="#1D9FD6" stroke-linecap="butt" stroke-opacity="1.0" stroke-width="33.33333333333333" /><path d="M 211.7066,449.1661 A 292.7407,292.7407 0 0 1 311.8299,275.7476" fill="none" stroke="#1D9FD6" stroke-linecap="butt" stroke-opacity="1.0" stroke-width="33.33333333333333" /><path d="M 311.8299,275.7476 A 292.7407,292.7407 0 0 1 500.0000,207.2593" fill="none" stroke="#1D9FD6" stroke-linecap="butt" stroke-opacity="0.05" stroke-width="33.33333333333333" /></svg>