<svg baseProfile="full" height="800px" version="1.1" viewBox="0 0 1000 1000" width="800px" xmlns="http://www.w3.org/2000/svg" xmlns:ev="http://www.w3.org/2001/xml-events" xmlns:xlink="http://www.w3.org/1999/xlink"><defs /><path d="M 500.0000,83.4074 A 416.5926,416.5926 0 0 1 589.5551,93.1471" fill="none" stroke="#4C6B85" stroke-linecap="butt" stroke-opacity="0.05" stroke-width="33.33333333333333" /><path d="M 589.5551,93.1471 A 416.5926,416.5926 0 0 1 674.9227,121.9108" fill="none" stroke="#4C6B85" stroke-linecap="butt" stroke-opacity="1.0" stroke-width="33.33333333333333" /><path d="M 674.9227,121.9108 A 416.5926,416.5926 0 0 1 752.1111,168.3535" fill="none" stroke="#4C6B85" stroke-linecap="butt" stroke-opacity="0.05" stroke-width="33.33333333333333" /><path d="M 752.1111,168.3535 A 416.5926,416.5926 0 0 1 817.5111,230.3037" fill="none" stroke="#4C6B85" stroke-linecap="butt" stroke-opacity="0.05" stroke-width="33.33333333333333" /><path d="M 817.5111,230.3037 A 416.5926,416.5926 0 0 1 868.0646,304.8645" fill="none" stroke="#4C6B85" stroke-linecap="butt" stroke-opacity="0.05" stroke-width="33.33333333333333" /><path d="M 868.0646,304.8645 A 416.5926,416.5926 0 0 1 901.4078,388.5497" fill="none" stroke="#4C6B85" stroke-linecap="butt" stroke-opacity="0.05" stroke-width="33.33333333333333" /><path d="M 901.4078,388.5497 A 416.5926,416.5926 0 0 1 915.9816,477.4461" fill="none" stroke="#4C6B85" stroke-linecap="butt" stroke-opacity="0.05" stroke-width="33.33333333333333" /><path d="M 915.9816,477.4461 A 416.5926,416.5926 0 0 1 911.1046,567.3972" fill="none" stroke="#4C6B85" stroke-linecap="butt" stroke-opacity="0.05" stroke-width="33.33333333333333" /><path d="M 911.1046,567.3972 A 416.5926,416.5926 0 0 1 887.0048,654.1968" fill="none" stroke="#4C6B85" stroke-linecap="butt" stroke-opacity="0.05" stroke-width="33.33333333333333" /><path d="M 887.0048,654.1968 A 416.5926,416.5926 0 0 1 844.8091,733.7864" fill="none" stroke="#4C6B85" stroke-linecap="butt" stroke-opacity="0.05" stroke-width="33.33333333333333" /><path d="M 844.8091,733.7864 A 416.5926,416.5926 0 0 1 786.4905,802.4443" fill="none" stroke="#4C6B85" stroke-linecap="butt" stroke-opacity="1.0" stroke-width="33.33333333333333" /><path d="M 786.4905,802.4443 A 416.5926,416.5926 0 0 1 714.7759,856.9604" fill="none" stroke="#4C6B85" stroke-linecap="butt" stroke-opacity="1.0" stroke-width="33.33333333333333" /><path d="M 714.7759,856.9604 A 416.5926,416.5926 0 0 1 633.0187,894.7853" fill="none" stroke="#4C6B85" stroke-linecap="butt" stroke-opacity="1.0" stroke-width="33.33333333333333" /><path d="M 633.0187,894.7853 A 416.5926,416.5926 0 0 1 545.0416,914.1505" fill="none" stroke="#4C6B85" stroke-linecap="butt" stroke-opacity="1.0" stroke-width="33.33333333333333" /><path d="M 545.0416,914.1505 A 416.5926,416.5926 0 0 1 454.9584,914.1505" fill="none" stroke="#4C6B85" stroke-linecap="butt" stroke-opacity="0.05" stroke-width="33.33333333333333" /><path d="M 454.9584,914.1505 A 416.5926,416.5926 0 0 1 366.9813,894.7853" fill="none" stroke="#4C6B85" stroke-linecap="butt" stroke-opacity="0.05" stroke-width="33.33333333333333" /><path d="M 366.9813,894.7853 A 416.5926,416.5926 0 0 1 285.2241,856.9604" fill="none" stroke="#4C6B85" stroke-linecap="butt" stroke-opacity="1.0" stroke-width="33.33333333333333" /><path d="M 285.2241,856.9604 A 416.5926,416.5926 0 0 1 213.5095,802.4443" fill="none" stroke="#4C6B85" stroke-linecap="butt" stroke-opacity="0.05" stroke-width="33.33333333333333" /><path d="M 213.5095,802.4443 A 416.5926,416.5926 0 0 1 155.1909,733.7864" fill="none" stroke="#4C6B85" stroke-linecap="butt" stroke-opacity="1.0" stroke-width="33.33333333333333" /><path d="M 155.1909,733.7864 A 416.5926,416.5926 0 0 1 112.9952,654.1968" fill="none" stroke="#4C6B85" stroke-linecap="butt" stroke-opacity="1.0" stroke-width="33.33333333333333" /><path d="M 112.9952,654.1968 A 416.5926,416.5926 0 0 1 88.8954,567.3972" fill="none" stroke="#4C6B85" stroke-linecap="butt" stroke-opacity="1.0" stroke-width="33.33333333333333" /><path d="M 88.8954,567.3972 A 416.5926,416.5926 0 0 1 84.0184,477.4461" fill="none" stroke="#4C6B85" stroke-linecap="butt" stroke-opacity="1.0" stroke-width="33.33333333333333" /><path d="M 84.0184,477.4461 A 416.5926,416.5926 0 0 1 98.5922,388.5497" fill="none" stroke="#4C6B85" stroke-linecap="butt" stroke-opacity="0.05" stroke-width="33.33333333333333" /><path d="M 98.5922,388.5497 A 416.5926,416.5926 0 0 1 131.9354,304.8645" fill="none" stroke="#4C6B85" stroke-linecap="butt" stroke-opacity="0.05" stroke-width="33.33333333333333" /><path d="M 131.9354,304.8645 A 416.5926,416.5926 0 0 1 182.4889,230.3037" fill="none" stroke="#4C6B85" stroke-linecap="butt" stroke-opacity="1.0" stroke-width="33.33333333333333" /><path d="M 182.4889,230.3037 A 416.5926,416.5926 0 0 1 247.8889,168.3535" fill="none" stroke="#4C6B85" stroke-linecap="butt" stroke-opacity="0.05" stroke-width="33.33333333333333" /><path d="M 247.8889,168.3535 A 416.5926,416.5926 0 0 1 325.0773,121.9108" fill="none" stroke="#4C6B85" stroke-linecap="butt" stroke-opacity="0.05" stroke-width="33.33333333333333" /><path d="M 325.0773,121.9108 A 416.5926,416.5926 0 0 1 410.4449,93.1471" fill="none" stroke="#4C6B85" stroke-linecap="butt" stroke-opacity="1.0" stroke-width="33.33333333333333" /><path d="M 410.4449,93.1471 A 416.5926,416.5926 0 0 1 500.0000,83.4074" fill="none" stroke="#4C6B85" stroke-linecap="butt" stroke-opacity="0.05" stroke-width="33.33333333333333" /></svg>